<svg xmlns="http://www.w3.org/2000/svg" viewBox="0 0 1200 750" role="img" aria-labelledby="title desc">
  <title id="title">Makerspace Intake Assistant poster</title>
  <desc id="desc">Abstract poster artwork with form panels and workflow cards.</desc>
  <defs>
    <linearGradient id="maker-bg" x1="0%" y1="0%" x2="100%" y2="100%">
      <stop offset="0%" stop-color="#eceff2" />
      <stop offset="100%" stop-color="#d0d6dd" />
    </linearGradient>
  </defs>
  <rect width="1200" height="750" fill="url(#maker-bg)" rx="36" />
  <rect x="70" y="70" width="470" height="610" rx="28" fill="#2d2d2f" />
  <rect x="580" y="70" width="550" height="180" rx="28" fill="#ffffff" opacity="0.94" />
  <rect x="580" y="290" width="550" height="390" rx="28" fill="#ffffff" opacity="0.9" />
  <rect x="130" y="150" width="350" height="56" rx="14" fill="#4b4b4f" />
  <rect x="130" y="240" width="350" height="56" rx="14" fill="#4b4b4f" />
  <rect x="130" y="330" width="240" height="56" rx="14" fill="#0090ff" />
  <rect x="130" y="420" width="300" height="56" rx="14" fill="#6e6e72" />
  <rect x="650" y="360" width="410" height="70" rx="18" fill="#e9edf1" />
  <rect x="650" y="458" width="300" height="70" rx="18" fill="#d7e7f7" />
  <rect x="650" y="556" width="230" height="70" rx="18" fill="#f3dccd" />
  <text x="120" y="618" fill="#ffffff" font-family="Georgia, serif" font-size="48" font-weight="700">Makerspace Intake</text>
  <text x="120" y="668" fill="#d4d4d8" font-family="Arial, sans-serif" font-size="28">Guided requests for fabrication support</text>
</svg>
