<svg xmlns="http://www.w3.org/2000/svg" viewBox="0 0 1200 750" role="img" aria-labelledby="title desc">
  <title id="title">Campus Study Pod Finder poster</title>
  <desc id="desc">Abstract poster artwork with map pins and study room cards.</desc>
  <defs>
    <linearGradient id="bg" x1="0%" y1="0%" x2="100%" y2="100%">
      <stop offset="0%" stop-color="#fff4e3" />
      <stop offset="100%" stop-color="#f3d2b8" />
    </linearGradient>
  </defs>
  <rect width="1200" height="750" fill="url(#bg)" rx="36" />
  <rect x="60" y="70" width="460" height="610" rx="28" fill="#ffffff" opacity="0.9" />
  <rect x="560" y="70" width="580" height="250" rx="28" fill="#173042" />
  <rect x="560" y="360" width="270" height="320" rx="28" fill="#c75b39" />
  <rect x="870" y="360" width="270" height="320" rx="28" fill="#ffffff" opacity="0.84" />
  <circle cx="290" cy="220" r="84" fill="#c75b39" />
  <path d="M290 172c-26 0-47 21-47 47 0 36 47 87 47 87s47-51 47-87c0-26-21-47-47-47zm0 63a16 16 0 1 1 0-32 16 16 0 0 1 0 32z" fill="#fff4e3" />
  <text x="110" y="400" fill="#173042" font-family="Georgia, serif" font-size="50" font-weight="700">Study Pod Finder</text>
  <text x="110" y="462" fill="#173042" font-family="Arial, sans-serif" font-size="28">Availability + accessibility + wayfinding</text>
  <text x="600" y="150" fill="#ffffff" font-family="Georgia, serif" font-size="54" font-weight="700">INTD 491</text>
  <text x="600" y="218" fill="#f6d9c5" font-family="Arial, sans-serif" font-size="30">Sample showcase poster artwork</text>
</svg>
